{"title":"Bad Milo 2013 SCREENER AC3-2 0 XviD-AXED","uid":8790765,"size":744162345,"categoryP":"video","categoryS":"movies","magnet":"?xt=urn:btih:78c499b4ecc8f88a25dd41bfeae8c9867bda8f53&amp;dn=Bad+Milo+2013+SCREENER+AC3-2+0+XviD-AXED&amp;tr=udp%3A%2F%2Ftracker.openbittorrent.com%3A80&amp;tr=udp%3A%2F%2Fopen.demonii.com%3A1337&amp;tr=udp%3A%2F%2Ftracker.coppersurfer.tk%3A6969&amp;tr=udp%3A%2F%2Fexodus.desync.com%3A6969","seeders":1,"leechers":0,"uploader":"srkfan","files":3,"time":1375939663,"description":"[b]SilverTorrent - Clean And Verified Torrents Download[/b]\n\n------------------------------------------------------\n\nBad.Milo.2013.SCREENER.AC3-2.0.XviD-AXED\n\nPOSTER:  &lt;a href=&quot;\nhttp://img837.imageshack.us/img837/5995/nvtg.jpg&quot; rel=&quot;nofollow&quot; target=&quot;_NEW&quot;&gt;\nhttp://img837.imageshack.us/img837/5995/nvtg.jpg&lt;/a&gt;\n\nIMDB:  &lt;a href=&quot;\nhttp://www.imdb.com/title/tt2274570&quot; rel=&quot;nofollow&quot; target=&quot;_NEW&quot;&gt;\nhttp://www.imdb.com/title/tt2274570&lt;/a&gt;\n\nPLOT INFO:\nA horror comedy centered on a guy who learns that his unusual stomach problems are being caused by a demon living in his intestines. \n\nMedia Info:\nGeneral\nComplete name                            : Bad.Milo.2013.SCREENER.AC3-2.0.XviD-AXED.avi\nFormat                                   : AVI\nFormat/Info                              : Audio Video Interleave\nFile size                                : 702 MiB\nDuration                                 : 1h 23mn\nOverall bit rate                         : 1 173 Kbps\nWriting library                          : VirtualDub build 32842/release\n\nVideo\nID                                       : 0\nFormat                                   : MPEG-4 Visual\nFormat profile                           : Advanced Simple@L5\nFormat settings, BVOP                    : 2\nFormat settings, QPel                    : No\nFormat settings, GMC                     : No warppoints\nFormat settings, Matrix                  : Default (H.263)\nMuxing mode                              : Packed bitstream\nCodec ID                                 : XVID\nCodec ID/Hint                            : XviD\nDuration                                 : 1h 23mn\nBit rate                                 : 1 036 Kbps\nWidth                                    : 640 pixels\nHeight                                   : 352 pixels\nDisplay aspect ratio                     : 16:9\nFrame rate                               : 23.976 fps\nColor space                              : YUV\nChroma subsampling                       : 4:2:0\nBit depth                                : 8 bits\nScan type                                : Progressive\nCompression mode                         : Lossy\nBits/(Pixel*Frame)                       : 0.192\nStream size                              : 620 MiB (88%)\nWriting library                          : XviD 64\n\nAudio\nID                                       : 1\nFormat                                   : AC-3\nFormat/Info                              : Audio Coding 3\nMode extension                           : CM (complete main)\nFormat settings, Endianness              : Big\nCodec ID                                 : 2000\nDuration                                 : 1h 23mn\nBit rate mode                            : Constant\nBit rate                                 : 128 Kbps\nChannel(s)                               : 2 channels\nChannel positions                        : Front: L R\nSampling rate                            : 44.1 KHz\nBit depth                                : 16 bits\nCompression mode                         : Lossy\nDelay relative to video                  : 6ms\nStream size                              : 76.6 MiB (11%)\nAlignment                                : Split accross interleaves\nInterleave, duration                     : 42 ms (1.00 video frame)\nInterleave, preload duration             : 500 ms\n\n\n\nSOURCE: \nScreener\n\nNOTES: \nWent with a 700 MB encode on this one due to the SD source, short run time and 2 channel audio. As far as screener tags it has a watermark at the bottom center that says 'Magnolia' throughout and thats all. Enjoy this new horror comedy which will hit VOD August 29 &amp; Limited Theaters Oct 4. This movie was originally titled Milo (even the title card in the screener says 'Milo') but we tagged it as 'Bad Milo' because that is the new name of the movie that it will be released under (see poster).\n\nAXED! Still kicking ass but we stopped taking names.\n\nSCREENS: &lt;a href=&quot;\nhttp://imageshack.us/a/img534/2492/edgd.png&quot; rel=&quot;nofollow&quot; target=&quot;_NEW&quot;&gt;\nhttp://imageshack.us/a/img534/2492/edgd.png&lt;/a&gt; &lt;a href=&quot;\nhttp://imageshack.us/a/img843/1226/jx83.png&quot; rel=&quot;nofollow&quot; target=&quot;_NEW&quot;&gt;\nhttp://imageshack.us/a/img843/1226/jx83.png&lt;/a&gt; &lt;a href=&quot;\nhttp://imageshack.us/a/img694/5250/x29.png&quot; rel=&quot;nofollow&quot; target=&quot;_NEW&quot;&gt;\nhttp://imageshack.us/a/img694/5250/x29.png&lt;/a&gt; &lt;a href=&quot;\nhttp://imageshack.us/a/img96/5980/lok4.png&quot; rel=&quot;nofollow&quot; target=&quot;_NEW&quot;&gt;\nhttp://imageshack.us/a/img96/5980/lok4.png&lt;/a&gt; &lt;a href=&quot;\nhttp://imageshack.us/a/img594/5579/4rwm.png&quot; rel=&quot;nofollow&quot; target=&quot;_NEW&quot;&gt;\nhttp://imageshack.us/a/img594/5579/4rwm.png&lt;/a&gt;","torrent":{"xt":"urn:btih:78c499b4ecc8f88a25dd41bfeae8c9867bda8f53","amp;dn":"Bad+Milo+2013+SCREENER+AC3-2+0+XviD-AXED","amp;tr":["udp%3A%2F%2Ftracker.openbittorrent.com%3A80","udp%3A%2F%2Fopen.demonii.com%3A1337","udp%3A%2F%2Ftracker.coppersurfer.tk%3A6969","udp%3A%2F%2Fexodus.desync.com%3A6969"],"infoHash":"78c499b4ecc8f88a25dd41bfeae8c9867bda8f53","infoHashBuffer":{"type":"Buffer","data":[120,196,153,180,236,200,248,138,37,221,65,191,234,232,201,134,123,218,143,83]},"announce":[],"urlList":[]}}